<svg width="48" height="48" viewBox="0 0 48 48" fill="none" xmlns="http://www.w3.org/2000/svg">
<rect width="48" height="48" rx="6" fill="#9F0132"/>
<g clip-path="url(#clip0_24003_3922)">
<path d="M26.9812 21.313C26.9812 20.5501 26.7949 19.8403 26.4223 19.1838C26.0319 18.5272 25.5084 18.0038 24.8519 17.6134C24.1777 17.2408 23.4679 17.0545 22.7226 17.0545C21.9774 17.0545 21.2676 17.2408 20.5934 17.6134C19.9368 18.0038 19.4134 18.5272 19.023 19.1838C18.6504 19.8403 18.4641 20.5501 18.4641 21.313C18.4641 22.076 18.6504 22.7858 19.023 23.4423C19.4134 24.0988 19.9368 24.6223 20.5934 25.0127C21.2676 25.3853 21.9774 25.5716 22.7226 25.5716C23.4679 25.5716 24.1777 25.3853 24.8519 25.0127C25.5084 24.6223 26.0319 24.0988 26.4223 23.4423C26.7949 22.7858 26.9812 22.076 26.9812 21.313ZM26.1561 25.6514C25.1979 26.4322 24.0534 26.8314 22.7226 26.8492C21.1612 26.8137 19.857 26.2725 18.8101 25.2256C17.7632 24.1787 17.222 22.8745 17.1865 21.313C17.222 19.7516 17.7632 18.4474 18.8101 17.4005C19.857 16.3536 21.1612 15.8124 22.7226 15.7769C24.2841 15.8124 25.5883 16.3536 26.6352 17.4005C27.6821 18.4474 28.2233 19.7516 28.2588 21.313C28.241 22.6438 27.8418 23.7883 27.061 24.7465L30.6276 28.313C30.876 28.6147 30.876 28.9163 30.6276 29.218C30.3259 29.4664 30.0243 29.4664 29.7226 29.218L26.1561 25.6514Z" fill="white"/>
</g>
<defs>
<clipPath id="clip0_24003_3922">
<rect width="14" height="14" fill="white" transform="matrix(1 0 0 -1 17 29.5898)"/>
</clipPath>
</defs>
</svg>
