<svg width="49" height="49" viewBox="0 0 49 49" fill="none" xmlns="http://www.w3.org/2000/svg">
<rect x="0.645508" y="0.400391" width="48" height="48" rx="6" fill="#9F0132"/>
<g clip-path="url(#clip0_24003_4523)">
<path d="M27.6267 21.7134C27.6267 20.9504 27.4404 20.2407 27.0678 19.5842C26.6774 18.9276 26.154 18.4042 25.4974 18.0138C24.8232 17.6412 24.1134 17.4549 23.3682 17.4549C22.6229 17.4549 21.9131 17.6412 21.2389 18.0138C20.5823 18.4042 20.0589 18.9276 19.6685 19.5842C19.2959 20.2407 19.1096 20.9504 19.1096 21.7134C19.1096 22.4764 19.2959 23.1862 19.6685 23.8427C20.0589 24.4992 20.5823 25.0227 21.2389 25.4131C21.9131 25.7857 22.6229 25.972 23.3682 25.972C24.1134 25.972 24.8232 25.7857 25.4974 25.4131C26.154 25.0227 26.6774 24.4992 27.0678 23.8427C27.4404 23.1862 27.6267 22.4764 27.6267 21.7134ZM26.8016 26.0518C25.8434 26.8326 24.699 27.2318 23.3682 27.2496C21.8067 27.2141 20.5025 26.6729 19.4556 25.626C18.4087 24.5791 17.8675 23.2749 17.832 21.7134C17.8675 20.152 18.4087 18.8478 19.4556 17.8009C20.5025 16.754 21.8067 16.2128 23.3682 16.1773C24.9296 16.2128 26.2338 16.754 27.2807 17.8009C28.3276 18.8478 28.8688 20.152 28.9043 21.7134C28.8865 23.0442 28.4873 24.1887 27.7066 25.1469L31.2731 28.7134C31.5215 29.0151 31.5215 29.3167 31.2731 29.6184C30.9714 29.8668 30.6698 29.8668 30.3682 29.6184L26.8016 26.0518Z" fill="white"/>
</g>
<defs>
<clipPath id="clip0_24003_4523">
<rect width="14" height="14" fill="white" transform="matrix(1 0 0 -1 17.6455 29.9902)"/>
</clipPath>
</defs>
</svg>
