<svg width="16" height="17" viewBox="0 0 16 17" fill="none" xmlns="http://www.w3.org/2000/svg">
<g clip-path="url(#clip0_24003_5039)">
<path d="M8.98853 1.87296V0.884547H7.01169V1.87296V9.37876L4.75687 7.09304L4.04644 6.4135L2.65648 7.80347L3.33602 8.51389L7.28968 12.4676L8.00011 13.1471L8.71053 12.4676L12.6642 8.51389L13.3437 7.80347L11.9538 6.4135L11.2434 7.09304L8.98853 9.37876V1.87296ZM0.0927734 16.6992H15.9074V11.7571H10.8109L9.39007 13.1471L8.00011 14.5679L6.61015 13.1471L5.22019 11.7571H0.0927734V16.6992ZM13.4364 13.4869C13.8894 13.528 14.1365 13.7752 14.1777 14.2282C14.1365 14.6812 13.8894 14.9283 13.4364 14.9695C12.9834 14.9283 12.7363 14.6812 12.6951 14.2282C12.7363 13.7752 12.9834 13.528 13.4364 13.4869Z" fill="white"/>
</g>
<defs>
<clipPath id="clip0_24003_5039">
<rect width="16" height="16" fill="white" transform="matrix(1 0 0 -1 0 16.6992)"/>
</clipPath>
</defs>
</svg>
