<svg width="24" height="25" viewBox="0 0 24 25" fill="none" xmlns="http://www.w3.org/2000/svg">
<path d="M8.72692 3.29137H15.2724C15.4845 3.32167 15.6057 3.44288 15.636 3.65501V5.47319H8.36328V3.65501C8.39358 3.44288 8.5148 3.32167 8.72692 3.29137ZM6.18146 3.65501V5.47319H3.27237C2.45419 5.50349 1.77237 5.79137 1.22692 6.33682C0.681463 6.88228 0.393584 7.5641 0.363281 8.38228V20.0186C0.393584 20.8368 0.681463 21.5186 1.22692 22.0641C1.77237 22.6096 2.45419 22.8974 3.27237 22.9277H20.7269C21.5451 22.8974 22.2269 22.6096 22.7724 22.0641C23.3178 21.5186 23.6057 20.8368 23.636 20.0186V8.38228C23.6057 7.5641 23.3178 6.88228 22.7724 6.33682C22.2269 5.79137 21.5451 5.50349 20.7269 5.47319H17.8178V3.65501C17.7875 2.92773 17.5451 2.32167 17.0906 1.83682C16.6057 1.38228 15.9996 1.13985 15.2724 1.10955H8.72692C7.99965 1.13985 7.39358 1.38228 6.90874 1.83682C6.45419 2.32167 6.21177 2.92773 6.18146 3.65501ZM13.8633 9.79137L17.4996 13.4277C17.9239 13.9429 17.9239 14.458 17.4996 14.9732L13.8633 18.6096C13.3481 19.0338 12.833 19.0338 12.3178 18.6096C11.8936 18.0944 11.8936 17.5792 12.3178 17.0641L14.0906 15.2914H7.27237C6.60571 15.2308 6.24207 14.8671 6.18146 14.2005C6.24207 13.5338 6.60571 13.1702 7.27237 13.1096H14.0906L12.3178 11.3368C11.8936 10.8217 11.8936 10.3065 12.3178 9.79137C12.833 9.36713 13.3481 9.36713 13.8633 9.79137Z" fill="#9F0132"/>
</svg>
