<svg width="84" height="49" viewBox="0 0 84 49" fill="none" xmlns="http://www.w3.org/2000/svg">
<path fill-rule="evenodd" clip-rule="evenodd" d="M12.1261 11.53L23.1145 22.4971L23.2817 17.6002L23.4488 12.7034L42.0778 12.7173C52.5255 12.7254 61.8211 12.9886 63.2444 13.3171C71.7408 15.2753 78.4606 21.249 81.5634 29.602C82.594 32.3774 82.9196 32.8522 82.9427 31.6134C83.0098 28.0081 81.1233 21.9586 78.8122 18.37C75.8407 13.7549 68.5987 6.64416 64.256 4.07749C58.4199 0.628264 57.6953 0.55828 28.0489 0.560593L1.1376 0.562905L12.1261 11.53ZM1.03582 19.2121C1.36778 26.0619 4.04203 31.0403 11.2111 38.1568C14.3122 41.2353 18.1154 44.3849 19.8469 45.3091C25.772 48.4721 26.6031 48.5461 56.0742 48.5536L83.251 48.5605L71.9843 37.2829C65.788 31.0802 60.5129 26.0053 60.2625 26.0053C60.0115 26.0053 59.9664 27.181 60.1613 28.6188C60.3562 30.056 60.3406 32.2681 60.1266 33.5347L59.7374 35.8371H41.3421C24.6923 35.8371 22.5987 35.7295 19.2715 34.7012C11.0671 32.1657 5.44566 26.7791 2.21158 18.3556L0.818359 14.7276L1.03582 19.2121Z" fill="white"/>
</svg>
