<svg width="17" height="17" viewBox="0 0 17 17" fill="none" xmlns="http://www.w3.org/2000/svg">
<path d="M9.48853 1.68742V0.699H7.51169V1.68742V9.19321L5.25687 6.90749L4.54644 6.22796L3.15648 7.61792L3.83602 8.32834L7.78968 12.282L8.50011 12.9615L9.21053 12.282L13.1642 8.32834L13.8437 7.61792L12.4538 6.22796L11.7434 6.90749L9.48853 9.19321V1.68742ZM0.592773 16.5137H16.4074V11.5716H11.3109L9.89007 12.9615L8.50011 14.3824L7.11015 12.9615L5.72019 11.5716H0.592773V16.5137ZM13.9364 13.3013C14.3894 13.3425 14.6365 13.5896 14.6777 14.0426C14.6365 14.4957 14.3894 14.7428 13.9364 14.7839C13.4834 14.7428 13.2363 14.4957 13.1951 14.0426C13.2363 13.5896 13.4834 13.3425 13.9364 13.3013Z" fill="black"/>
</svg>
