<svg width="72" height="42" viewBox="0 0 72 42" fill="none" xmlns="http://www.w3.org/2000/svg">
<path fill-rule="evenodd" clip-rule="evenodd" d="M10.4201 9.97355L19.8181 19.3533L19.9611 15.1652L20.104 10.9772L36.0367 10.989C44.9722 10.996 52.9225 11.221 54.1397 11.502C61.4064 13.1768 67.1535 18.2859 69.8073 25.4298C70.6887 27.8036 70.9672 28.2097 70.987 27.1502C71.0443 24.0666 69.4308 18.8928 67.4543 15.8236C64.9129 11.8764 58.7191 5.79489 55.0049 3.59971C50.0135 0.649713 49.3937 0.589858 24.0383 0.591837L1.02206 0.593814L10.4201 9.97355ZM0.935005 16.5438C1.21892 22.4022 3.50611 26.66 9.63758 32.7465C12.2898 35.3794 15.5425 38.0732 17.0235 38.8636C22.091 41.5688 22.8018 41.6321 48.0073 41.6385L71.2506 41.6444L61.6146 31.9991C56.3151 26.6941 51.8036 22.3537 51.5894 22.3537C51.3747 22.3537 51.3362 23.3593 51.5029 24.589C51.6695 25.8181 51.6562 27.7101 51.4732 28.7934L51.1403 30.7625H35.4075C21.1675 30.7625 19.3769 30.6705 16.5313 29.791C9.51442 27.6226 4.70659 23.0155 1.9406 15.8112L0.749023 12.7084L0.935005 16.5438Z" fill="white"/>
</svg>
