<svg width="60" height="35" viewBox="0 0 60 35" fill="none" xmlns="http://www.w3.org/2000/svg">
<path fill-rule="evenodd" clip-rule="evenodd" d="M8.22408 7.97805L16.216 15.9544L16.3375 12.3929L16.4591 8.8315L30.0079 8.8416C37.6065 8.84749 44.3672 9.03887 45.4024 9.27779C51.5818 10.702 56.4691 15.0467 58.7257 21.1218C59.4753 23.1404 59.7121 23.4857 59.7289 22.5847C59.7777 19.9625 58.4056 15.5628 56.7248 12.9528C54.5636 9.5962 49.2965 4.4246 46.1381 2.55787C41.8935 0.0492506 41.3665 -0.00164876 19.8048 3.37492e-05L0.232186 0.00171533L8.22408 7.97805ZM0.158155 13.5652C0.399595 18.5471 2.34457 22.1679 7.55865 27.3437C9.81405 29.5827 12.5801 31.8734 13.8394 32.5456C18.1488 34.846 18.7532 34.8998 40.1875 34.9053L59.9531 34.9103L51.7589 26.7081C47.2523 22.1969 43.4158 18.5059 43.2336 18.5059C43.0511 18.5059 43.0183 19.361 43.16 20.4067C43.3018 21.452 43.2904 23.0609 43.1348 23.982L42.8517 25.6565H29.4729C17.3634 25.6565 15.8408 25.5783 13.4209 24.8304C7.45392 22.9864 3.36543 19.0687 1.01329 12.9423L0 10.3037L0.158155 13.5652Z" fill="white"/>
</svg>
